<?xml version="1.0" encoding="UTF-8" standalone="no"?>
<!-- Created with Inkscape (http://www.inkscape.org/) -->

<svg
   version="1.1"
   id="svg2"
   xml:space="preserve"
   width="377.94666"
   height="188.97333"
   viewBox="0 0 377.94666 188.97333"
   sodipodi:docname="Logo PT Bumi Nusantara Sehat FINAL.ai"
   xmlns:inkscape="http://www.inkscape.org/namespaces/inkscape"
   xmlns:sodipodi="http://sodipodi.sourceforge.net/DTD/sodipodi-0.dtd"
   xmlns="http://www.w3.org/2000/svg"
   xmlns:svg="http://www.w3.org/2000/svg"><defs
     id="defs6"><clipPath
       clipPathUnits="userSpaceOnUse"
       id="clipPath16"><path
         d="M 0,141.73 H 283.46 V 0 H 0 Z"
         id="path14" /></clipPath></defs><sodipodi:namedview
     id="namedview4"
     pagecolor="#ffffff"
     bordercolor="#666666"
     borderopacity="1.0"
     inkscape:pageshadow="2"
     inkscape:pageopacity="0.0"
     inkscape:pagecheckerboard="0" /><g
     id="g8"
     inkscape:groupmode="layer"
     inkscape:label="Logo PT Bumi Nusantara Sehat FINAL"
     transform="matrix(1.3333333,0,0,-1.3333333,0,188.97333)"><g
       id="g10"><g
         id="g12"
         clip-path="url(#clipPath16)"><g
           id="g18"
           transform="translate(50.9917,115.2334)"><path
             d="m 0,0 c 0,0 2.957,-4.586 7.87,-5.752 5.367,-1.275 11.263,-1.87 17.809,-6.719 4.632,-3.433 3.212,-8.858 1.986,-11.737 -3.171,10.566 -18.553,12.166 -20.888,15.163 2.025,-4.084 17.054,-4.661 19.869,-17.986 l 1.418,-5.944 c 5.609,7.107 13.936,6.765 15.415,6.819 -5.215,1.055 -12.162,-1.569 -14.766,-4.332 0.029,0.596 0.096,8.302 11.064,6.931 3.336,-0.418 7.887,-2.598 7.887,-2.598 0,0 -2.764,-0.765 -6.791,-7.867 -1.325,-2.335 -5.125,-6.51 -9.359,-4.595 -2.476,1.12 -3.45,4.32 -3.45,4.32 0,0 0.31,-5.024 -0.036,-7.795 -0.671,-5.368 -3.526,-10.219 -3.526,-10.219 h -3.523 c 0,0 3.691,5.716 4.7,13.857 0.672,5.425 -0.84,10.567 -0.84,10.567 0,0 -1.342,-3.118 -4.532,-4.331 -3.189,-1.213 -8.9,-1.183 -14.936,6.756 C -0.292,-18.015 0,0 0,0"
             style="fill:#72bf44;fill-opacity:1;fill-rule:nonzero;stroke:none"
             id="path20" /></g><g
           id="g22"
           transform="translate(123.021,65.3716)"><path
             d="m 0,0 h 2.218 c 0.81,0 1.668,0.023 2.575,0.071 0.905,0.047 1.752,0.215 2.54,0.501 0.787,0.286 1.441,0.74 1.967,1.36 0.524,0.619 0.786,1.477 0.786,2.575 0,1.144 -0.274,2.014 -0.822,2.611 C 8.715,7.714 8.023,8.143 7.189,8.406 6.354,8.667 5.46,8.823 4.507,8.871 3.552,8.917 2.694,8.942 1.932,8.942 H 0 Z m 1.789,20.316 c 0.715,0 1.43,0.036 2.146,0.108 0.715,0.071 1.37,0.238 1.967,0.5 0.596,0.262 1.073,0.656 1.431,1.181 0.357,0.524 0.536,1.263 0.536,2.217 0,1.002 -0.203,1.753 -0.608,2.254 -0.406,0.501 -0.93,0.858 -1.574,1.073 -0.644,0.214 -1.348,0.333 -2.11,0.358 -0.764,0.023 -1.502,0.035 -2.218,0.035 H 0 V 20.316 Z M -18.17,41.062 H 4.65 c 2.622,0 5.198,-0.191 7.726,-0.572 2.527,-0.383 4.78,-1.121 6.76,-2.218 1.979,-1.098 3.577,-2.623 4.793,-4.578 1.216,-1.956 1.824,-4.484 1.824,-7.583 0,-2.385 -0.585,-4.603 -1.753,-6.653 C 22.832,17.407 21.055,16 18.671,15.237 v -0.429 c 2.956,-1.049 5.294,-2.636 7.011,-4.757 1.717,-2.123 2.575,-4.805 2.575,-8.048 0,-2.766 -0.585,-5.104 -1.753,-7.01 -1.169,-1.908 -2.694,-3.447 -4.578,-4.615 -1.884,-1.168 -4.006,-2.002 -6.367,-2.504 -2.36,-0.5 -4.71,-0.75 -7.046,-0.75 H -18.17 Z"
             style="fill:#004175;fill-opacity:1;fill-rule:nonzero;stroke:none"
             id="path24" /></g><g
           id="g26"
           transform="translate(157.3584,106.4336)"><path
             d="m 0,0 h 18.814 l 17.598,-29.902 h 0.572 c -0.382,2.289 -0.751,4.578 -1.109,6.867 -0.357,2.289 -0.536,4.578 -0.536,6.868 V 0 H 54.081 V -53.938 H 35.339 l -17.24,28.328 h -0.573 c 0.333,-1.86 0.62,-3.673 0.859,-5.437 0.238,-1.765 0.357,-3.553 0.357,-5.365 V -53.938 H 0 Z"
             style="fill:#004175;fill-opacity:1;fill-rule:nonzero;stroke:none"
             id="path28" /></g><g
           id="g30"
           transform="translate(223.2432,71.8101)"><path
             d="m 0,0 1.001,-0.787 c 1.765,-1.384 3.672,-2.552 5.724,-3.506 2.049,-0.954 4.22,-1.43 6.509,-1.43 0.476,0 1.013,0.047 1.61,0.143 0.595,0.096 1.144,0.273 1.645,0.537 0.501,0.262 0.917,0.596 1.252,1.001 0.333,0.405 0.5,0.918 0.5,1.538 0,0.619 -0.142,1.109 -0.429,1.466 -0.286,0.358 -0.643,0.632 -1.073,0.823 -0.428,0.19 -0.906,0.333 -1.43,0.429 C 14.783,0.31 14.308,0.404 13.878,0.5 L 9.943,1.216 C 8.035,1.549 6.224,2.085 4.507,2.826 2.79,3.564 1.287,4.53 0,5.723 c -1.288,1.192 -2.302,2.599 -3.04,4.22 -0.74,1.621 -1.109,3.481 -1.109,5.58 0,3.195 0.667,6.033 2.003,8.513 1.334,2.479 3.099,4.566 5.293,6.259 2.194,1.693 4.686,2.98 7.476,3.864 2.79,0.882 5.662,1.323 8.62,1.323 6.199,0 11.899,-1.574 17.098,-4.721 L 31.047,16.954 c -1.67,1.145 -3.446,2.11 -5.33,2.897 -1.884,0.787 -3.899,1.181 -6.044,1.181 -0.43,0 -0.895,-0.049 -1.396,-0.143 -0.501,-0.097 -0.954,-0.251 -1.359,-0.466 -0.405,-0.214 -0.751,-0.5 -1.037,-0.858 -0.286,-0.357 -0.429,-0.822 -0.429,-1.395 0,-0.525 0.13,-0.93 0.393,-1.216 0.261,-0.286 0.596,-0.525 1.002,-0.715 0.404,-0.192 0.834,-0.335 1.288,-0.429 0.452,-0.097 0.869,-0.192 1.251,-0.287 l 4.435,-1.001 c 2.05,-0.478 3.958,-1.121 5.723,-1.932 1.765,-0.811 3.279,-1.836 4.543,-3.076 1.263,-1.241 2.254,-2.718 2.969,-4.435 0.715,-1.717 1.073,-3.72 1.073,-6.009 0,-3.244 -0.669,-6.057 -2.003,-8.441 -1.336,-2.386 -3.101,-4.389 -5.294,-6.01 -2.194,-1.621 -4.698,-2.825 -7.512,-3.612 -2.814,-0.786 -5.675,-1.181 -8.584,-1.181 -3.433,0 -6.987,0.442 -10.659,1.324 -3.673,0.881 -7.035,2.086 -10.086,3.613 z"
             style="fill:#004175;fill-opacity:1;fill-rule:nonzero;stroke:none"
             id="path32" /></g><g
           id="g34"
           transform="translate(18.8042,31.4341)"><path
             d="M 0,0 C 0.569,0 1.002,0.146 1.301,0.437 1.599,0.729 1.748,1.111 1.748,1.585 1.748,2.06 1.599,2.439 1.301,2.724 1.002,3.008 0.569,3.15 0,3.15 h -1.829 c -0.082,0 -0.122,-0.04 -0.122,-0.122 V 0.122 C -1.951,0.041 -1.911,0 -1.829,0 Z m -5.325,-7.642 c -0.136,0 -0.203,0.068 -0.203,0.204 V 5.976 c 0,0.135 0.067,0.203 0.203,0.203 h 5.528 c 0.84,0 1.582,-0.116 2.226,-0.346 C 3.072,5.603 3.608,5.284 4.034,4.878 4.461,4.472 4.783,3.987 5,3.425 5.217,2.862 5.325,2.249 5.325,1.585 5.325,0.922 5.217,0.309 5,-0.254 4.783,-0.816 4.458,-1.304 4.024,-1.718 3.59,-2.131 3.055,-2.452 2.418,-2.683 1.782,-2.913 1.043,-3.028 0.203,-3.028 h -2.032 c -0.082,0 -0.122,-0.041 -0.122,-0.122 v -4.288 c 0,-0.136 -0.068,-0.204 -0.204,-0.204 z"
             style="fill:#004175;fill-opacity:1;fill-rule:nonzero;stroke:none"
             id="path36" /></g><g
           id="g38"
           transform="translate(28.7632,23.7925)"><path
             d="m 0,0 h -0.061 c -0.027,0 -0.061,0.02 -0.101,0.061 -0.027,0.027 -0.041,0.053 -0.041,0.081 v 0.061 10.325 c 0,0.054 -0.034,0.094 -0.102,0.121 h -0.02 -3.394 -0.061 c -0.028,0 -0.055,0.014 -0.082,0.041 l -0.02,0.021 -0.02,0.02 c -0.014,0.027 -0.02,0.068 -0.02,0.123 v 2.763 c 0,0.109 0.047,0.176 0.142,0.203 h 0.061 10.61 c 0.053,0 0.101,-0.02 0.142,-0.06 l 0.02,-0.041 C 7.08,13.691 7.094,13.658 7.094,13.617 V 10.854 C 7.094,10.785 7.073,10.731 7.033,10.69 7.005,10.663 6.972,10.649 6.931,10.649 H 6.891 3.496 c -0.04,0 -0.068,-0.006 -0.081,-0.019 L 3.375,10.589 V 10.528 0.203 0.142 C 3.361,0.102 3.327,0.061 3.272,0.02 3.259,0.006 3.225,0 3.171,0 Z"
             style="fill:#004175;fill-opacity:1;fill-rule:nonzero;stroke:none"
             id="path40" /></g><g
           id="g42"
           transform="translate(45.3892,26.6167)"><path
             d="m 0,0 c 0,-0.081 0.041,-0.121 0.122,-0.121 h 1.626 c 1.125,0 1.687,0.521 1.687,1.564 0,0.475 -0.14,0.851 -0.417,1.128 C 2.74,2.85 2.317,2.988 1.748,2.988 H 0.122 C 0.041,2.988 0,2.947 0,2.866 Z m 1.565,5.447 c 1.098,0 1.646,0.475 1.646,1.423 0,0.948 -0.548,1.423 -1.646,1.423 H 0.122 C 0.041,8.293 0,8.253 0,8.171 V 5.569 C 0,5.488 0.041,5.447 0.122,5.447 Z m -5.142,5.346 c 0,0.136 0.067,0.203 0.203,0.203 h 5.63 C 3.801,10.996 4.939,10.657 5.67,9.98 6.402,9.303 6.768,8.415 6.768,7.317 6.768,6.6 6.616,5.993 6.311,5.498 6.006,5.004 5.596,4.621 5.081,4.351 V 4.31 C 5.596,4.119 6.047,3.75 6.433,3.202 6.819,2.653 7.012,1.972 7.012,1.159 7.012,0.481 6.897,-0.108 6.667,-0.609 6.436,-1.11 6.111,-1.523 5.691,-1.849 5.271,-2.175 4.766,-2.418 4.177,-2.581 3.587,-2.743 2.927,-2.824 2.195,-2.824 h -5.569 c -0.136,0 -0.203,0.067 -0.203,0.203 z"
             style="fill:#004175;fill-opacity:1;fill-rule:nonzero;stroke:none"
             id="path44" /></g><g
           id="g46"
           transform="translate(59.7593,23.5484)"><path
             d="m 0,0 c -0.841,0 -1.6,0.118 -2.277,0.355 -0.678,0.238 -1.257,0.59 -1.738,1.057 -0.481,0.468 -0.85,1.05 -1.108,1.748 -0.257,0.698 -0.385,1.508 -0.385,2.429 v 8.272 c 0,0.136 0.067,0.203 0.203,0.203 h 3.17 c 0.136,0 0.204,-0.067 0.204,-0.203 V 5.365 c 0,-0.69 0.176,-1.225 0.528,-1.605 C -1.051,3.38 -0.583,3.19 0,3.19 0.609,3.19 1.08,3.38 1.412,3.76 1.744,4.14 1.91,4.675 1.91,5.365 v 8.496 c 0,0.136 0.068,0.203 0.204,0.203 h 3.17 c 0.135,0 0.203,-0.067 0.203,-0.203 V 5.589 C 5.487,4.668 5.355,3.858 5.091,3.16 4.827,2.462 4.454,1.88 3.973,1.412 3.492,0.945 2.916,0.593 2.246,0.355 1.575,0.118 0.826,0 0,0"
             style="fill:#004175;fill-opacity:1;fill-rule:nonzero;stroke:none"
             id="path48" /></g><g
           id="g50"
           transform="translate(67.4414,37.4097)"><path
             d="M 0,0 C 0,0.136 0.068,0.203 0.204,0.203 H 3.211 C 3.388,0.203 3.503,0.136 3.557,0 L 6.748,-7.215 H 6.829 L 9.939,0 c 0.054,0.136 0.169,0.203 0.346,0.203 h 2.967 c 0.136,0 0.204,-0.067 0.204,-0.203 v -13.414 c 0,-0.136 -0.068,-0.203 -0.204,-0.203 h -2.825 c -0.135,0 -0.203,0.067 -0.203,0.203 v 7.113 H 10.122 L 7.907,-11.463 C 7.853,-11.572 7.791,-11.643 7.724,-11.677 7.656,-11.711 7.588,-11.728 7.52,-11.728 H 5.935 c -0.149,0 -0.278,0.088 -0.386,0.265 L 3.333,-6.301 H 3.232 v -7.113 c 0,-0.136 -0.068,-0.203 -0.204,-0.203 H 0.204 C 0.068,-13.617 0,-13.55 0,-13.414 Z"
             style="fill:#004175;fill-opacity:1;fill-rule:nonzero;stroke:none"
             id="path52" /></g><g
           id="g54"
           transform="translate(83.1323,37.4097)"><path
             d="M 0,0 C 0,0.136 0.068,0.203 0.203,0.203 H 3.374 C 3.509,0.203 3.577,0.136 3.577,0 v -13.414 c 0,-0.136 -0.068,-0.203 -0.203,-0.203 H 0.203 C 0.068,-13.617 0,-13.55 0,-13.414 Z"
             style="fill:#004175;fill-opacity:1;fill-rule:nonzero;stroke:none"
             id="path56" /></g><g
           id="g58"
           transform="translate(93.7822,37.4097)"><path
             d="M 0,0 C 0,0.136 0.068,0.203 0.204,0.203 H 3.191 C 3.367,0.203 3.482,0.136 3.537,0 L 7.703,-7.825 H 7.785 V 0 c 0,0.136 0.068,0.203 0.203,0.203 h 2.845 c 0.136,0 0.204,-0.067 0.204,-0.203 v -13.414 c 0,-0.136 -0.068,-0.203 -0.204,-0.203 H 7.846 c -0.177,0 -0.292,0.067 -0.346,0.203 L 3.374,-5.609 H 3.252 v -7.805 c 0,-0.136 -0.068,-0.203 -0.203,-0.203 H 0.204 C 0.068,-13.617 0,-13.55 0,-13.414 Z"
             style="fill:#004175;fill-opacity:1;fill-rule:nonzero;stroke:none"
             id="path60" /></g><g
           id="g62"
           transform="translate(112.5225,23.5484)"><path
             d="m 0,0 c -0.84,0 -1.6,0.118 -2.276,0.355 -0.678,0.238 -1.258,0.59 -1.739,1.057 -0.481,0.468 -0.85,1.05 -1.107,1.748 -0.258,0.698 -0.386,1.508 -0.386,2.429 v 8.272 c 0,0.136 0.067,0.203 0.203,0.203 h 3.17 c 0.136,0 0.204,-0.067 0.204,-0.203 V 5.365 c 0,-0.69 0.176,-1.225 0.528,-1.605 C -1.05,3.38 -0.583,3.19 0,3.19 0.61,3.19 1.08,3.38 1.412,3.76 1.745,4.14 1.91,4.675 1.91,5.365 v 8.496 c 0,0.136 0.068,0.203 0.204,0.203 h 3.17 c 0.135,0 0.203,-0.067 0.203,-0.203 V 5.589 C 5.487,4.668 5.355,3.858 5.091,3.16 4.827,2.462 4.454,1.88 3.973,1.412 3.492,0.945 2.916,0.593 2.246,0.355 1.575,0.118 0.826,0 0,0"
             style="fill:#004175;fill-opacity:1;fill-rule:nonzero;stroke:none"
             id="path64" /></g><g
           id="g66"
           transform="translate(125.1846,23.5484)"><path
             d="m 0,0 c -0.569,0 -1.128,0.054 -1.677,0.162 -0.549,0.109 -1.07,0.254 -1.565,0.438 -0.495,0.182 -0.942,0.392 -1.341,0.629 -0.4,0.238 -0.729,0.485 -0.986,0.743 -0.122,0.108 -0.129,0.216 -0.02,0.325 l 1.829,2.154 c 0.094,0.109 0.19,0.115 0.284,0.021 0.42,-0.367 0.938,-0.689 1.555,-0.966 0.617,-0.278 1.271,-0.417 1.962,-0.417 0.65,0 1.138,0.119 1.463,0.356 C 1.829,3.682 1.992,3.997 1.992,4.39 1.992,4.687 1.87,4.932 1.626,5.122 1.382,5.312 0.921,5.453 0.244,5.549 L -0.488,5.65 C -1.992,5.866 -3.137,6.321 -3.923,7.012 -4.709,7.703 -5.102,8.699 -5.102,10 c 0,0.65 0.123,1.239 0.366,1.768 0.244,0.529 0.59,0.979 1.037,1.351 0.447,0.373 0.986,0.664 1.616,0.874 0.63,0.21 1.337,0.316 2.124,0.316 0.961,0 1.869,-0.136 2.723,-0.407 0.854,-0.271 1.592,-0.643 2.215,-1.118 0.109,-0.081 0.123,-0.182 0.042,-0.305 L 3.496,10.264 C 3.415,10.155 3.319,10.135 3.211,10.203 c -0.487,0.325 -0.989,0.579 -1.503,0.762 -0.516,0.183 -1.051,0.274 -1.606,0.274 -0.516,0 -0.898,-0.108 -1.149,-0.325 -0.25,-0.217 -0.376,-0.494 -0.376,-0.833 0,-0.311 0.129,-0.562 0.386,-0.752 C -0.78,9.14 -0.318,9.004 0.346,8.923 L 1.078,8.821 C 2.595,8.604 3.736,8.146 4.502,7.449 5.268,6.751 5.65,5.745 5.65,4.431 5.65,3.794 5.529,3.204 5.285,2.662 5.041,2.12 4.682,1.653 4.207,1.26 3.733,0.867 3.144,0.559 2.439,0.335 1.734,0.111 0.921,0 0,0"
             style="fill:#004175;fill-opacity:1;fill-rule:nonzero;stroke:none"
             id="path68" /></g><g
           id="g70"
           transform="translate(139.4121,29.0972)"><path
             d="M 0,0 -1.28,4.309 H -1.342 L -2.683,0 Z m -3.211,8.313 c 0.04,0.135 0.128,0.203 0.264,0.203 h 3.313 c 0.135,0 0.223,-0.068 0.264,-0.203 L 5.305,-5.102 C 5.346,-5.237 5.298,-5.305 5.162,-5.305 H 1.809 c -0.136,0 -0.224,0.068 -0.265,0.203 l -0.65,2.134 h -4.492 l -0.65,-2.134 c -0.041,-0.135 -0.129,-0.203 -0.264,-0.203 h -3.334 c -0.135,0 -0.182,0.068 -0.142,0.203 z"
             style="fill:#004175;fill-opacity:1;fill-rule:nonzero;stroke:none"
             id="path72" /></g><g
           id="g74"
           transform="translate(146.0381,37.4097)"><path
             d="M 0,0 C 0,0.136 0.067,0.203 0.203,0.203 H 3.191 C 3.367,0.203 3.482,0.136 3.536,0 L 7.703,-7.825 H 7.784 V 0 c 0,0.136 0.069,0.203 0.203,0.203 h 2.846 c 0.135,0 0.203,-0.067 0.203,-0.203 v -13.414 c 0,-0.136 -0.068,-0.203 -0.203,-0.203 H 7.846 c -0.177,0 -0.292,0.067 -0.346,0.203 L 3.374,-5.609 H 3.252 v -7.805 c 0,-0.136 -0.068,-0.203 -0.203,-0.203 H 0.203 C 0.067,-13.617 0,-13.55 0,-13.414 Z"
             style="fill:#004175;fill-opacity:1;fill-rule:nonzero;stroke:none"
             id="path76" /></g><g
           id="g78"
           transform="translate(162.3584,23.7925)"><path
             d="m 0,0 h -0.061 c -0.027,0 -0.06,0.02 -0.101,0.061 -0.027,0.027 -0.04,0.053 -0.04,0.081 v 0.061 10.325 c 0,0.054 -0.034,0.094 -0.103,0.121 h -0.019 -3.395 -0.06 c -0.028,0 -0.055,0.014 -0.082,0.041 l -0.021,0.021 -0.02,0.02 c -0.014,0.027 -0.02,0.068 -0.02,0.123 v 2.763 c 0,0.109 0.047,0.176 0.143,0.203 h 0.06 10.61 c 0.053,0 0.101,-0.02 0.142,-0.06 l 0.021,-0.041 c 0.026,-0.028 0.04,-0.061 0.04,-0.102 V 10.854 C 7.094,10.785 7.073,10.731 7.033,10.69 7.006,10.663 6.972,10.649 6.932,10.649 H 6.891 3.496 c -0.04,0 -0.067,-0.006 -0.081,-0.019 L 3.375,10.589 V 10.528 0.203 0.142 C 3.361,0.102 3.327,0.061 3.272,0.02 3.259,0.006 3.226,0 3.171,0 Z"
             style="fill:#004175;fill-opacity:1;fill-rule:nonzero;stroke:none"
             id="path80" /></g><g
           id="g82"
           transform="translate(176.4854,29.0972)"><path
             d="M 0,0 -1.281,4.309 H -1.342 L -2.684,0 Z m -3.212,8.313 c 0.041,0.135 0.129,0.203 0.265,0.203 h 3.313 c 0.135,0 0.223,-0.068 0.264,-0.203 L 5.305,-5.102 C 5.346,-5.237 5.298,-5.305 5.162,-5.305 H 1.809 c -0.136,0 -0.224,0.068 -0.264,0.203 l -0.651,2.134 h -4.492 l -0.65,-2.134 c -0.041,-0.135 -0.129,-0.203 -0.265,-0.203 h -3.333 c -0.135,0 -0.182,0.068 -0.142,0.203 z"
             style="fill:#004175;fill-opacity:1;fill-rule:nonzero;stroke:none"
             id="path84" /></g><g
           id="g86"
           transform="translate(188.7207,31.6577)"><path
             d="M 0,0 C 0.515,0 0.915,0.132 1.199,0.396 1.484,0.661 1.626,1.017 1.626,1.464 1.626,1.91 1.484,2.267 1.199,2.53 0.915,2.795 0.515,2.927 0,2.927 h -1.91 c -0.082,0 -0.122,-0.04 -0.122,-0.122 V 0.122 C -2.032,0.041 -1.992,0 -1.91,0 Z m 1.809,-7.865 c -0.15,0 -0.251,0.067 -0.305,0.203 l -2.093,4.715 H -1.91 c -0.082,0 -0.122,-0.04 -0.122,-0.122 v -4.593 c 0,-0.136 -0.069,-0.203 -0.203,-0.203 h -3.171 c -0.136,0 -0.203,0.067 -0.203,0.203 V 5.752 c 0,0.136 0.067,0.203 0.203,0.203 h 5.63 C 1.009,5.955 1.714,5.847 2.337,5.63 2.961,5.413 3.482,5.104 3.902,4.705 4.322,4.306 4.645,3.835 4.868,3.293 5.092,2.751 5.203,2.154 5.203,1.504 5.203,0.637 5.007,-0.132 4.613,-0.803 4.221,-1.474 3.658,-1.991 2.927,-2.357 l 2.541,-5.265 c 0.026,-0.067 0.026,-0.125 0,-0.173 -0.028,-0.047 -0.075,-0.07 -0.143,-0.07 z"
             style="fill:#004175;fill-opacity:1;fill-rule:nonzero;stroke:none"
             id="path88" /></g><g
           id="g90"
           transform="translate(202.9687,29.0972)"><path
             d="M 0,0 -1.28,4.309 H -1.342 L -2.683,0 Z m -3.212,8.313 c 0.041,0.135 0.129,0.203 0.265,0.203 H 0.365 C 0.501,8.516 0.59,8.448 0.63,8.313 L 5.305,-5.102 C 5.346,-5.237 5.298,-5.305 5.162,-5.305 H 1.809 c -0.135,0 -0.224,0.068 -0.264,0.203 l -0.65,2.134 h -4.493 l -0.65,-2.134 c -0.041,-0.135 -0.129,-0.203 -0.264,-0.203 h -3.334 c -0.135,0 -0.182,0.068 -0.142,0.203 z"
             style="fill:#004175;fill-opacity:1;fill-rule:nonzero;stroke:none"
             id="path92" /></g><g
           id="g94"
           transform="translate(219.4111,23.5484)"><path
             d="M 0,0 C -0.568,0 -1.128,0.054 -1.677,0.162 -2.226,0.271 -2.747,0.416 -3.241,0.6 -3.736,0.782 -4.184,0.992 -4.583,1.229 -4.983,1.467 -5.312,1.714 -5.568,1.972 -5.69,2.08 -5.697,2.188 -5.589,2.297 l 1.829,2.154 c 0.095,0.109 0.19,0.115 0.284,0.021 0.42,-0.367 0.939,-0.689 1.555,-0.966 0.617,-0.278 1.271,-0.417 1.962,-0.417 0.65,0 1.138,0.119 1.463,0.356 C 1.829,3.682 1.992,3.997 1.992,4.39 1.992,4.687 1.87,4.932 1.626,5.122 1.383,5.312 0.922,5.453 0.244,5.549 L -0.487,5.65 c -1.504,0.216 -2.65,0.671 -3.435,1.362 -0.787,0.691 -1.18,1.687 -1.18,2.988 0,0.65 0.123,1.239 0.367,1.768 0.244,0.529 0.589,0.979 1.036,1.351 0.447,0.373 0.986,0.664 1.616,0.874 0.63,0.21 1.338,0.316 2.124,0.316 0.962,0 1.87,-0.136 2.724,-0.407 0.853,-0.271 1.591,-0.643 2.215,-1.118 0.108,-0.081 0.122,-0.182 0.041,-0.305 L 3.496,10.264 C 3.415,10.155 3.319,10.135 3.212,10.203 c -0.488,0.325 -0.99,0.579 -1.504,0.762 -0.516,0.183 -1.051,0.274 -1.606,0.274 -0.515,0 -0.898,-0.108 -1.149,-0.325 -0.25,-0.217 -0.376,-0.494 -0.376,-0.833 0,-0.311 0.129,-0.562 0.387,-0.752 C -0.779,9.14 -0.318,9.004 0.346,8.923 L 1.078,8.821 C 2.595,8.604 3.736,8.146 4.502,7.449 5.268,6.751 5.65,5.745 5.65,4.431 5.65,3.794 5.529,3.204 5.285,2.662 5.041,2.12 4.682,1.653 4.207,1.26 3.733,0.867 3.144,0.559 2.439,0.335 1.734,0.111 0.922,0 0,0"
             style="fill:#004175;fill-opacity:1;fill-rule:nonzero;stroke:none"
             id="path96" /></g><g
           id="g98"
           transform="translate(226.7285,37.4097)"><path
             d="M 0,0 C 0,0.136 0.067,0.203 0.203,0.203 H 9.247 C 9.383,0.203 9.451,0.136 9.451,0 v -2.622 c 0,-0.135 -0.068,-0.203 -0.204,-0.203 H 3.698 c -0.081,0 -0.121,-0.04 -0.121,-0.122 V -5.04 c 0,-0.082 0.04,-0.122 0.121,-0.122 h 4.554 c 0.135,0 0.203,-0.068 0.203,-0.203 V -7.927 C 8.455,-8.063 8.387,-8.13 8.252,-8.13 H 3.698 c -0.081,0 -0.121,-0.041 -0.121,-0.122 v -2.216 c 0,-0.081 0.04,-0.121 0.121,-0.121 h 5.549 c 0.136,0 0.204,-0.068 0.204,-0.204 v -2.621 c 0,-0.136 -0.068,-0.203 -0.204,-0.203 H 0.203 C 0.067,-13.617 0,-13.55 0,-13.414 Z"
             style="fill:#004175;fill-opacity:1;fill-rule:nonzero;stroke:none"
             id="path100" /></g><g
           id="g102"
           transform="translate(238.0488,37.4097)"><path
             d="M 0,0 C 0,0.136 0.067,0.203 0.203,0.203 H 3.374 C 3.51,0.203 3.577,0.136 3.577,0 v -4.898 c 0,-0.081 0.041,-0.123 0.122,-0.123 H 7.46 c 0.081,0 0.121,0.042 0.121,0.123 V 0 c 0,0.136 0.068,0.203 0.203,0.203 h 3.171 c 0.136,0 0.204,-0.067 0.204,-0.203 v -13.414 c 0,-0.136 -0.068,-0.203 -0.204,-0.203 H 7.784 c -0.135,0 -0.203,0.067 -0.203,0.203 v 5.101 c 0,0.082 -0.04,0.123 -0.121,0.123 H 3.699 c -0.081,0 -0.122,-0.041 -0.122,-0.123 v -5.101 c 0,-0.136 -0.067,-0.203 -0.203,-0.203 H 0.203 C 0.067,-13.617 0,-13.55 0,-13.414 Z"
             style="fill:#004175;fill-opacity:1;fill-rule:nonzero;stroke:none"
             id="path104" /></g><g
           id="g106"
           transform="translate(258.5166,29.0972)"><path
             d="M 0,0 -1.281,4.309 H -1.342 L -2.684,0 Z m -3.212,8.313 c 0.041,0.135 0.129,0.203 0.265,0.203 h 3.312 c 0.136,0 0.224,-0.068 0.265,-0.203 L 5.305,-5.102 C 5.346,-5.237 5.298,-5.305 5.162,-5.305 H 1.809 c -0.136,0 -0.224,0.068 -0.265,0.203 l -0.649,2.134 h -4.493 l -0.65,-2.134 c -0.041,-0.135 -0.129,-0.203 -0.265,-0.203 h -3.333 c -0.135,0 -0.182,0.068 -0.142,0.203 z"
             style="fill:#004175;fill-opacity:1;fill-rule:nonzero;stroke:none"
             id="path108" /></g><g
           id="g110"
           transform="translate(266.7891,23.7925)"><path
             d="m 0,0 h -0.062 c -0.027,0 -0.06,0.02 -0.101,0.061 -0.027,0.027 -0.041,0.053 -0.041,0.081 v 0.061 10.325 c 0,0.054 -0.033,0.094 -0.102,0.121 H -0.325 -3.72 -3.781 c -0.028,0 -0.054,0.014 -0.081,0.041 l -0.021,0.021 -0.019,0.02 c -0.014,0.027 -0.021,0.068 -0.021,0.123 v 2.763 c 0,0.109 0.047,0.176 0.142,0.203 H -3.72 6.89 c 0.054,0 0.101,-0.02 0.142,-0.06 l 0.021,-0.041 c 0.026,-0.028 0.04,-0.061 0.04,-0.102 V 10.854 C 7.093,10.785 7.073,10.731 7.032,10.69 7.005,10.663 6.972,10.649 6.931,10.649 H 6.89 3.496 c -0.041,0 -0.068,-0.006 -0.082,-0.019 L 3.374,10.589 V 10.528 0.203 0.142 C 3.36,0.102 3.326,0.061 3.271,0.02 3.258,0.006 3.225,0 3.171,0 Z"
             style="fill:#004175;fill-opacity:1;fill-rule:nonzero;stroke:none"
             id="path112" /></g><g
           id="g114"
           transform="translate(47.1914,99.6724)"><path
             d="m 0,0 c 0,-9.495 -7.698,-17.193 -17.193,-17.193 -9.495,0 -17.193,7.698 -17.193,17.193 0,9.496 7.698,17.193 17.193,17.193 C -7.698,17.193 0,9.496 0,0"
             style="fill:#ed1c24;fill-opacity:1;fill-rule:nonzero;stroke:none"
             id="path116" /></g><g
           id="g118"
           transform="translate(28.5298,95.335)"><path
             d="m 0,0 c -6.335,0 -12.441,-0.977 -18.18,-2.782 -0.194,-1.189 -0.331,-2.395 -0.422,-3.614 5.834,2.004 12.087,3.109 18.602,3.109 23.897,0 44.365,-14.649 52.938,-35.453 0.843,0.864 1.654,1.757 2.42,2.69 C 45.955,-14.819 24.714,0 0,0"
             style="fill:#ffffff;fill-opacity:1;fill-rule:nonzero;stroke:none"
             id="path120" /></g><g
           id="g122"
           transform="translate(28.5298,92.0479)"><path
             d="m 0,0 c -6.515,0 -12.768,-1.104 -18.602,-3.109 -0.013,-0.176 -0.029,-0.35 -0.04,-0.526 1.577,0.131 3.168,0.215 4.778,0.215 25.83,0 47.656,-17.112 54.781,-40.615 4.511,2.136 8.574,5.056 12.021,8.582 C 44.365,-14.648 23.897,0 0,0"
             style="fill:#231f20;fill-opacity:1;fill-rule:nonzero;stroke:none"
             id="path124" /></g><g
           id="g126"
           transform="translate(14.667,89.0782)"><path
             d="m 0,0 c 25.426,0 47.485,-16.225 55.057,-40.432 4.163,2.035 7.932,4.741 11.214,8.053 C 57.403,-11.168 36.865,2.52 13.863,2.52 8.071,2.52 2.348,1.639 -3.173,-0.099 -2.06,-0.033 -1.011,0 0,0 m 54.501,-41.696 -0.151,0.501 C 47.043,-17.094 25.202,-0.901 0,-0.901 c -1.469,0 -3.019,-0.07 -4.741,-0.213 l -0.518,-0.044 0.093,1.347 0.281,0.097 c 6.051,2.08 12.359,3.134 18.748,3.134 23.467,0 44.41,-14.025 53.354,-35.731 l 0.114,-0.273 -0.208,-0.213 c -3.527,-3.61 -7.615,-6.528 -12.15,-8.675 z"
             style="fill:#ffffff;fill-opacity:1;fill-rule:nonzero;stroke:none"
             id="path128" /></g><g
           id="g130"
           transform="translate(14.666,88.6275)"><path
             d="m 0,0 c -1.61,0 -3.201,-0.083 -4.778,-0.215 -0.001,-0.016 -0.003,-0.033 -0.004,-0.05 17.746,-7.624 30.861,-23.96 33.963,-43.627 2.509,-0.469 5.094,-0.726 7.74,-0.726 6.391,0 12.444,1.439 17.86,4.004 C 47.656,-17.111 25.83,0 0,0"
             style="fill:#004175;fill-opacity:1;fill-rule:nonzero;stroke:none"
             id="path132" /></g><g
           id="g134"
           transform="translate(44.2407,45.1216)"><path
             d="m 0,0 c 2.445,-0.439 4.915,-0.662 7.347,-0.662 6.042,0 11.865,1.276 17.315,3.796 -7.419,23.894 -29.165,39.922 -54.236,39.922 -0.974,0 -1.985,-0.031 -3.057,-0.094 C -15.469,34.968 -3.055,18.673 0,0 m 7.347,-1.563 c -2.59,0 -5.223,0.247 -7.824,0.735 l -0.313,0.058 -0.049,0.314 c -3.006,19.06 -15.918,35.645 -33.696,43.284 l -0.304,0.131 0.073,0.7 0.376,0.081 c 1.748,0.146 3.323,0.217 4.816,0.217 25.601,0 47.789,-16.451 55.212,-40.935 L 25.75,2.651 25.399,2.485 C 19.728,-0.201 13.654,-1.563 7.347,-1.563"
             style="fill:#ffffff;fill-opacity:1;fill-rule:nonzero;stroke:none"
             id="path136" /></g><g
           id="g138"
           transform="translate(9.8843,88.3628)"><path
             d="m 0,0 c -0.052,-0.849 -0.086,-1.703 -0.086,-2.565 0,-20.433 14.669,-37.43 34.048,-41.062 C 30.86,-23.96 17.746,-7.624 0,0"
             style="fill:#231f20;fill-opacity:1;fill-rule:nonzero;stroke:none"
             id="path140" /></g><g
           id="g142"
           transform="translate(10.2983,87.6905)"><path
             d="m 0,0 c -0.034,-0.687 -0.049,-1.3 -0.049,-1.893 0,-19.664 13.859,-36.592 33.048,-40.495 C 29.844,-23.808 17.275,-7.661 0,0 m 34.092,-43.514 -0.627,0.117 C 13.523,-39.66 -0.95,-22.205 -0.95,-1.893 c 0,0.791 0.027,1.614 0.086,2.592 l 0.039,0.64 0.588,-0.253 c 18.06,-7.759 31.176,-24.607 34.23,-43.97 z"
             style="fill:#ffffff;fill-opacity:1;fill-rule:nonzero;stroke:none"
             id="path144" /></g></g></g></g></svg>
